<svg width="236" height="236" viewBox="0 0 236 236" fill="none" xmlns="http://www.w3.org/2000/svg">
<g clip-path="url(#clip0_68_155)">
<path d="M118 231.896C55.2035 231.896 4.10435 180.797 4.10435 118C4.10435 55.2035 55.2035 4.10435 118 4.10435C180.797 4.10435 231.896 55.2035 231.896 118C231.896 180.797 180.797 231.896 118 231.896Z" fill="#C5F4FF"/>
<path d="M118 8.2087C178.539 8.2087 227.791 57.4609 227.791 118C227.791 178.539 178.539 227.791 118 227.791C57.4609 227.791 8.2087 178.539 8.2087 118C8.2087 57.4609 57.4609 8.2087 118 8.2087ZM118 0C52.823 0 0 52.823 0 118C0 183.177 52.823 236 118 236C183.177 236 236 183.177 236 118C236 52.823 183.177 0 118 0Z" fill="#002B45"/>
<path d="M118 210.348C67.0856 210.348 25.6522 168.914 25.6522 118C25.6522 67.0856 67.0856 25.6522 118 25.6522C168.914 25.6522 210.348 67.0856 210.348 118C210.348 168.914 168.914 210.348 118 210.348Z" fill="#48A7FF"/>
<path d="M118 29.7565C166.657 29.7565 206.243 69.343 206.243 118C206.243 166.657 166.657 206.243 118 206.243C69.343 206.243 29.7565 166.657 29.7565 118C29.7565 69.343 69.343 29.7565 118 29.7565ZM118 21.5478C64.7256 21.5478 21.5478 64.7256 21.5478 118C21.5478 171.274 64.7256 214.452 118 214.452C171.274 214.452 214.452 171.274 214.452 118C214.452 64.7256 171.274 21.5478 118 21.5478Z" fill="#002B45"/>
<path d="M142.38 76.2793C142.585 76.3203 142.749 76.4024 142.852 76.5256L144.596 79.1113C144.678 79.2755 144.76 79.3781 144.842 79.4191C144.883 79.5012 144.842 79.6449 144.719 79.8501L110.817 159.392C110.571 159.639 110.407 159.762 110.345 159.762H98.5659C98.1965 159.762 98.0323 159.598 98.0323 159.29C98.0323 159.167 98.0734 159.043 98.1555 158.92L135.608 85.7603H99.4073C98.8532 85.7603 98.5659 86.0271 98.5659 86.5402L96.9447 95.385C96.9447 95.6313 96.6984 95.7544 96.2264 95.7544H91.6501C91.3217 95.7544 91.1781 95.6313 91.1781 95.385V76.8129C91.1781 76.4845 91.3423 76.3409 91.6501 76.3409H142.4L142.38 76.2793Z" fill="white"/>
</g>
<defs>
<clipPath id="clip0_68_155">
<rect width="236" height="236" fill="white"/>
</clipPath>
</defs>
</svg>
